<!DOCTYPE svg PUBLIC "-//W3C//DTD SVG 1.1//EN" "http://www.w3.org/Graphics/SVG/1.1/DTD/svg11.dtd">
<!-- Uploaded to: SVG Repo, www.svgrepo.com, Transformed by: SVG Repo Mixer Tools -->
<svg version="1.1" id="Layer_1" xmlns="http://www.w3.org/2000/svg" xmlns:xlink="http://www.w3.org/1999/xlink" viewBox="0 0 473.654 473.654" xml:space="preserve" width="800px" height="800px" fill="#000000">
<g id="SVGRepo_bgCarrier" stroke-width="0"/>
<g id="SVGRepo_tracerCarrier" stroke-linecap="round" stroke-linejoin="round"/>
<g id="SVGRepo_iconCarrier"> <circle style="fill:#eb9844;" cx="236.827" cy="236.827" r="236.827"/> <path style="fill:#eb984483A34B;" d="M23.496,339.815c38.316,79.204,119.435,133.839,213.316,133.839 c93.886,0,175.008-54.635,213.324-133.839L23.496,339.815L23.496,339.815z"/> <rect x="95.976" y="335.141" style="fill:#eb9844D8D8D8;" width="9.031" height="14.678"/> <polygon style="fill:#eb9844D5D6D4;" points="105.007,335.129 105.007,349.807 113.29,349.807 113.29,335.877 "/> <polygon style="fill:#eb9844D2D3D1;" points="91.459,335.877 91.459,349.807 95.976,349.807 95.976,335.129 "/> <path style="fill:#eb9844D5D6D4;" d="M98.317,220.313v13.743h11.911v-13.743H98.317z M100.378,231.24c0,0.55-0.389,0.995-0.875,0.995 c-0.482,0-0.879-0.445-0.879-0.995v-8.13c0-0.55,0.396-1.286,0.879-1.286c0.486,0,0.875,0.737,0.875,1.286V231.24z M103.762,231.442 c0,0.58-0.583,1.047-1.313,1.047c-0.722,0-1.32-0.467-1.32-1.047v-8.522c0-0.576,0.595-1.346,1.32-1.346s1.313,0.774,1.313,1.346 V231.442z M107.311,231.442c0,0.58-0.591,1.047-1.313,1.047c-0.729,0-1.324-0.467-1.324-1.047v-8.522 c0-0.576,0.591-1.346,1.324-1.346c0.718,0,1.313,0.774,1.313,1.346V231.442z M109.876,231.24c0,0.55-0.389,0.995-0.868,0.995 c-0.479,0-0.864-0.445-0.864-0.995v-8.13c0-0.55,0.385-1.286,0.864-1.286c0.479,0,0.868,0.737,0.868,1.286V231.24z"/> <path style="fill:#eb9844DDDFDA;" d="M110.845,218.795H97.696c-0.434,0-0.797,0.295-0.797,0.654v0.43h14.726v-0.43 C111.626,219.087,111.279,218.795,110.845,218.795z"/> <path style="fill:#eb9844D0D1C5;" d="M96.904,219.827c0,0,1.114,1.088,1.496,1.088h11.742c0.389,0,1.485-1.088,1.485-1.088H96.904z"/> <g> <path style="fill:#eb9844DDDFDA;" d="M104.046,214.046c-3.332,0-6.054,2.203-6.054,4.921h12.116 C110.108,216.248,107.389,214.046,104.046,214.046z"/> <polygon style="fill:#eb9844DDDFDA;" points="104.136,207.015 103.751,210.789 103.751,215.426 104.54,215.426 104.54,210.789 "/> <ellipse style="fill:#eb9844DDDFDA;" cx="104.143" cy="210.014" rx="0.722" ry="0.434"/> <ellipse style="fill:#eb9844DDDFDA;" cx="104.143" cy="211.533" rx="0.722" ry="0.434"/> <ellipse style="fill:#eb9844DDDFDA;" cx="104.143" cy="212.969" rx="0.722" ry="0.434"/> <polygon style="fill:#eb9844DDDFDA;" points="109.715,236.88 98.426,236.88 95.03,335.877 113.29,335.877 "/> <path style="fill:#eb9844DDDFDA;" d="M113.474,298.616H94.656c-0.621,0-1.129,0.737-1.129,1.645v1.103h21.08v-1.103 C114.603,299.353,114.109,298.616,113.474,298.616z"/> </g> <path style="fill:#eb9844D0D1C5;" d="M93.527,301.23c0,0,1.582,2.749,2.135,2.749h16.802c0.561,0,2.139-2.749,2.139-2.749H93.527z"/> <path style="fill:#eb9844DDDFDA;" d="M112.329,266.714H95.995c-0.542,0-0.987,0.643-0.987,1.432v0.957h18.309v-0.957 C113.317,267.357,112.872,266.714,112.329,266.714z"/> <path style="fill:#eb9844D0D1C5;" d="M95.008,268.98c0,0,1.376,2.39,1.862,2.39h14.577c0.486,0,1.866-2.39,1.866-2.39H95.008z"/> <path style="fill:#eb9844DDDFDA;" d="M110.931,233.084H97.236c-0.456,0-0.823,0.538-0.823,1.197v0.804h15.336v-0.8 C111.75,233.626,111.383,233.084,110.931,233.084z"/> <path style="fill:#eb9844D0D1C5;" d="M96.414,234.987c0,0,1.152,2.001,1.548,2.001h12.232c0.393,0,1.552-2.001,1.552-2.001H96.414z"/> <rect x="370.667" y="335.141" style="fill:#eb9844D8D8D8;" width="9.042" height="14.678"/> <polygon style="fill:#eb9844D5D6D4;" points="362.365,335.877 362.365,349.807 370.648,349.807 370.648,335.129 "/> <polygon style="fill:#eb9844D2D3D1;" points="379.69,335.129 379.69,349.807 384.196,349.807 384.196,335.877 "/> <path style="fill:#eb9844D5D6D4;" d="M365.427,220.313v13.743h11.922v-13.743H365.427z M367.529,231.24c0,0.55-0.393,0.995-0.879,0.995 c-0.479,0-0.868-0.445-0.868-0.995v-8.13c0-0.55,0.389-1.286,0.868-1.286c0.486,0,0.879,0.737,0.879,1.286V231.24z M370.977,231.442 c0,0.58-0.583,1.047-1.316,1.047c-0.733,0-1.309-0.467-1.309-1.047v-8.522c0-0.576,0.576-1.346,1.309-1.346 c0.733,0,1.316,0.774,1.316,1.346V231.442z M374.522,231.442c0,0.58-0.591,1.047-1.32,1.047c-0.718,0-1.313-0.467-1.313-1.047 v-8.522c0-0.576,0.591-1.346,1.313-1.346c0.725,0,1.32,0.774,1.32,1.346V231.442z M377.028,231.24c0,0.55-0.393,0.995-0.871,0.995 c-0.482,0-0.875-0.445-0.875-0.995v-8.13c0-0.55,0.393-1.286,0.875-1.286c0.479,0,0.871,0.737,0.871,1.286V231.24z"/> <path style="fill:#eb9844DDDFDA;" d="M377.962,218.795H364.81c-0.434,0-0.789,0.295-0.789,0.654v0.43h14.73v-0.43 C378.755,219.087,378.396,218.795,377.962,218.795z"/> <path style="fill:#eb9844D0D1C5;" d="M364.025,219.827c0,0,1.111,1.088,1.5,1.088h11.735c0.389,0,1.496-1.088,1.496-1.088H364.025z"/> <g> <path style="fill:#eb9844DDDFDA;" d="M371.609,214.046c-3.347,0-6.058,2.203-6.058,4.921h12.112 C377.663,216.248,374.952,214.046,371.609,214.046z"/> <polygon style="fill:#eb9844DDDFDA;" points="371.523,207.015 371.123,210.789 371.123,215.426 371.904,215.426 371.904,210.789 "/> <ellipse style="fill:#eb9844DDDFDA;" cx="371.527" cy="210.014" rx="0.718" ry="0.434"/> <ellipse style="fill:#eb9844DDDFDA;" cx="371.527" cy="211.533" rx="0.718" ry="0.434"/> <ellipse style="fill:#eb9844DDDFDA;" cx="371.527" cy="212.969" rx="0.718" ry="0.434"/> <polygon style="fill:#eb9844DDDFDA;" points="377.241,236.88 365.947,236.88 362.365,335.877 380.629,335.877 "/> <path style="fill:#eb9844DDDFDA;" d="M381.003,298.616h-18.814c-0.632,0-1.133,0.737-1.133,1.645v1.103h21.08v-1.103 C382.132,299.353,381.624,298.616,381.003,298.616z"/> </g> <path style="fill:#eb9844D0D1C5;" d="M361.056,301.23c0,0,1.582,2.749,2.139,2.749h16.798c0.557,0,2.139-2.749,2.139-2.749H361.056z"/> <path style="fill:#eb9844DDDFDA;" d="M379.664,266.714h-16.331c-0.55,0-0.976,0.643-0.976,1.432v0.957h18.286v-0.957 C380.644,267.357,380.21,266.714,379.664,266.714z"/> <path style="fill:#eb9844D0D1C5;" d="M362.357,268.98c0,0,1.365,2.39,1.847,2.39h14.588c0.479,0,1.847-2.39,1.847-2.39H362.357z"/> <path style="fill:#eb9844DDDFDA;" d="M378.434,233.084h-13.709c-0.449,0-0.811,0.538-0.811,1.197v0.804h15.336v-0.8 C379.249,233.626,378.879,233.084,378.434,233.084z"/> <path style="fill:#eb9844D0D1C5;" d="M363.913,234.987c0,0,1.148,2.001,1.544,2.001h12.232c0.411,0,1.559-2.001,1.559-2.001H363.913z"/> <rect x="192.401" y="197.251" style="fill:#eb9844D3D6D0;" width="90.685" height="35.462"/> <g> <polygon style="fill:#eb9844D6D6D6;" points="237.523,76.399 235.189,99.342 235.189,127.531 239.957,127.531 239.957,99.342 "/> <ellipse style="fill:#eb9844D6D6D6;" cx="237.613" cy="94.69" rx="4.36" ry="2.648"/> <ellipse style="fill:#eb9844D6D6D6;" cx="237.613" cy="103.844" rx="4.36" ry="2.648"/> <ellipse style="fill:#eb9844D6D6D6;" cx="237.613" cy="112.524" rx="4.36" ry="2.648"/> </g> <circle style="fill:#eb9844E5E5E5;" cx="237.65" cy="179.687" r="49.235"/> <path style="fill:#eb9844D6D6D6;" d="M237.639,118.803l-21.547,16.705c0,0,11.503-4.637,21.618-4.637c10.104,0,21.469,4.637,21.469,4.637 L237.639,118.803z"/> <path style="fill:#eb9844EDEDED;" d="M286.851,178.789c-12.546,1.118-34.98,2.936-48.484,2.936c-14.008,0-37.669-1.952-49.949-3.055 c-0.007,0.333-0.011,0.669-0.011,1.002c0,5.557,0.916,10.901,2.618,15.889c13.324,1.118,35.896,2.865,47.246,2.865 c10.976,0,32.474-1.634,45.944-2.756c1.724-5.015,2.648-10.4,2.648-15.998C286.863,179.376,286.859,179.084,286.851,178.789z"/> <rect x="191.99" y="214.539" style="fill:#eb9844DDDFDA;" width="91.13" height="106.376"/> <rect x="202.685" y="226.85" style="fill:#eb9844E5E5E5;" width="69.691" height="94.05"/> <rect x="208.672" y="233.723" style="fill:#eb9844D3D3D3;" width="57.728" height="85.315"/> <path style="fill:#eb9844DDDFDA;" d="M260.689,249.706c-6.742-5.71-22.419-11.593-22.419-11.593s-14.51,5.03-23.006,12.18 c-5.568,4.689-6.593,11.428-6.593,11.428v57.309H266.4v-57.309C266.396,261.722,266.736,254.833,260.689,249.706z"/> <path style="fill:#eb9844C6C6C6;" d="M243.884,264.945c-1.844-1.563-6.144-3.179-6.144-3.179s-3.975,1.38-6.312,3.336 c-1.522,1.29-1.806,3.134-1.806,3.134v15.714h15.83v-15.71C245.454,268.24,245.537,266.351,243.884,264.945z"/> <rect x="208.62" y="283.946" style="fill:#eb9844D1D3CD;" width="57.776" height="4.143"/> <rect x="223.888" y="287.947" style="fill:#eb9844C6C6C6;" width="27.265" height="30.885"/> <rect x="226.543" y="290.868" style="fill:#eb9844E5E5E5;" width="21.981" height="27.957"/> <rect x="229.61" y="293.931" style="fill:#eb9844D3D3D3;" width="15.83" height="24.883"/> <path style="fill:#eb9844C6C6C6;" d="M243.884,299.82c-1.844-1.567-6.144-3.179-6.144-3.179s-3.975,1.376-6.312,3.336 c-1.522,1.283-1.806,3.141-1.806,3.141v15.706h15.83v-15.706C245.454,303.119,245.537,301.226,243.884,299.82z"/> <g> <path style="fill:#eb9844B2B2B2;" d="M189.178,246.408c-2.879,0-5.217-1.372-5.217-3.066v-24.988c0-1.69,2.337-3.956,5.217-3.956 c1.118,0,2.135,0.337,2.984,0.845v-4.521H158.64v40.283h33.522v-35.451l-0.363,30.44 C191.032,246.255,190.135,246.408,189.178,246.408z M166.852,242.751c0,1.619-1.548,2.921-3.474,2.921 c-1.918,0-3.474-1.305-3.474-2.921v-23.84c0-1.615,1.556-3.773,3.474-3.773c1.926,0,3.474,2.158,3.474,3.773V242.751z M180.315,243.345c0,1.694-2.333,3.066-5.217,3.066s-5.224-1.372-5.224-3.066v-24.988c0-1.69,2.341-3.956,5.224-3.956 s5.217,2.262,5.217,3.956V243.345z M192.162,215.246v0.31V215.246L192.162,215.246z"/> <path style="fill:#eb9844B2B2B2;" d="M158.64,215.246l0.004,0.307L158.64,215.246L158.64,215.246z M158.644,210.721v4.521 c0.856-0.509,1.881-0.845,2.995-0.845c2.883,0,5.217,2.262,5.217,3.956v24.988c0,1.694-2.333,3.066-5.217,3.066 c-0.961,0-1.855-0.153-2.629-0.415l-0.366-30.444V251h33.522v-40.279H158.644z M180.932,243.345c0,1.694-2.33,3.066-5.209,3.066 c-2.883,0-5.224-1.372-5.224-3.066v-24.988c0-1.69,2.341-3.956,5.224-3.956c2.879,0,5.209,2.262,5.209,3.956V243.345z M190.909,242.751c0,1.619-1.559,2.921-3.478,2.921c-1.926,0-3.474-1.305-3.474-2.921v-23.84c0-1.615,1.548-3.773,3.474-3.773 c1.918,0,3.478,2.158,3.478,3.773V242.751z"/> </g> <path style="fill:#eb9844DDDFDA;" d="M194.271,206.26H155.72c-1.286,0-2.319,0.856-2.319,1.911v1.275h43.188v-1.275 C196.589,207.116,195.554,206.26,194.271,206.26z"/> <path style="fill:#eb9844D0D1C5;" d="M153.401,209.285c0,0,3.246,3.179,4.379,3.179h34.43c1.141,0,4.379-3.179,4.379-3.179H153.401z"/> <g> <path style="fill:#eb9844DDDFDA;" d="M174.354,192.33c-9.801,0-17.752,6.466-17.752,14.442h35.504 C192.106,198.796,184.159,192.33,174.354,192.33z"/> <polygon style="fill:#eb9844DDDFDA;" points="174.597,171.729 173.479,182.787 173.479,196.372 175.782,196.372 175.782,182.787 "/> <ellipse style="fill:#eb9844DDDFDA;" cx="174.642" cy="180.547" rx="2.105" ry="1.279"/> <ellipse style="fill:#eb9844DDDFDA;" cx="174.642" cy="184.959" rx="2.105" ry="1.275"/> <ellipse style="fill:#eb9844DDDFDA;" cx="174.642" cy="189.14" rx="2.105" ry="1.275"/> </g> <g> <path style="fill:#eb9844D5D6D4;" d="M157.526,210.721v40.283h34.95v-40.283H157.526z M163.584,242.751c0,1.619-1.148,2.921-2.569,2.921 c-1.41,0-2.569-1.305-2.569-2.921v-23.84c0-1.615,1.159-3.773,2.569-3.773c1.421,0,2.569,2.158,2.569,3.773V242.751z M173.52,243.345c0,1.694-1.731,3.066-3.855,3.066c-2.128,0-3.852-1.372-3.852-3.066v-24.988c0-1.69,1.724-3.956,3.852-3.956 c2.124,0,3.855,2.262,3.855,3.956V243.345z M183.901,243.345c0,1.694-1.724,3.066-3.844,3.066c-2.128,0-3.852-1.372-3.852-3.066 v-24.988c0-1.69,1.724-3.956,3.852-3.956c2.12,0,3.844,2.262,3.844,3.956V243.345z M191.444,242.751 c0,1.619-1.141,2.921-2.558,2.921c-1.425,0-2.573-1.305-2.573-2.921v-23.84c0-1.615,1.152-3.773,2.573-3.773 c1.417,0,2.558,2.158,2.558,3.773L191.444,242.751L191.444,242.751z"/> <path style="fill:#eb9844D5D6D4;" d="M129.722,204.237v3.396h2.936v-3.396H129.722z M130.227,206.937c0,0.135-0.093,0.247-0.213,0.247 c-0.12,0-0.221-0.112-0.221-0.247v-2.016c0-0.138,0.097-0.314,0.221-0.314c0.116,0,0.213,0.176,0.213,0.314V206.937z M131.076,206.982c0,0.142-0.15,0.254-0.333,0.254c-0.172,0-0.322-0.112-0.322-0.254v-2.109c0-0.138,0.15-0.333,0.322-0.333 c0.183,0,0.333,0.194,0.333,0.333V206.982z M131.947,206.982c0,0.142-0.15,0.254-0.325,0.254c-0.179,0-0.329-0.112-0.329-0.254 v-2.109c0-0.138,0.15-0.333,0.329-0.333c0.176,0,0.325,0.194,0.325,0.333V206.982z M132.587,206.937 c0,0.135-0.105,0.247-0.224,0.247c-0.112,0-0.213-0.112-0.213-0.247v-2.016c0-0.138,0.097-0.314,0.213-0.314 s0.224,0.176,0.224,0.314V206.937z"/> </g> <path style="fill:#eb9844DDDFDA;" d="M132.815,203.859h-3.25c-0.108,0-0.198,0.067-0.198,0.157v0.112h3.646v-0.112 C133.013,203.926,132.931,203.859,132.815,203.859z"/> <path style="fill:#eb9844D0D1C5;" d="M129.371,204.11c0,0,0.284,0.269,0.374,0.269h2.906c0.097,0,0.366-0.269,0.366-0.269H129.371z"/> <g> <path style="fill:#eb9844DDDFDA;" d="M131.136,202.677c-0.83,0-1.481,0.546-1.481,1.223h2.984 C132.639,203.223,131.966,202.677,131.136,202.677z"/> <polygon style="fill:#eb9844DDDFDA;" points="131.169,200.946 131.065,201.877 131.065,203.018 131.255,203.018 131.255,201.877 "/> <ellipse style="fill:#eb9844DDDFDA;" cx="131.184" cy="201.675" rx="0.18" ry="0.105"/> <ellipse style="fill:#eb9844DDDFDA;" cx="131.184" cy="202.049" rx="0.18" ry="0.108"/> <ellipse style="fill:#eb9844DDDFDA;" cx="131.184" cy="202.423" rx="0.18" ry="0.108"/> <polygon style="fill:#eb9844DDDFDA;" points="132.534,208.328 129.745,208.328 128.914,232.807 133.428,232.807 "/> <path style="fill:#eb9844DDDFDA;" d="M132.837,207.393h-3.381c-0.116,0-0.213,0.131-0.213,0.295v0.198h3.803v-0.198 C133.047,207.524,132.953,207.393,132.837,207.393z"/> </g> <path style="fill:#eb9844D0D1C5;" d="M129.243,207.857c0,0,0.284,0.497,0.389,0.497h3.025c0.093,0,0.389-0.497,0.389-0.497H129.243z"/> <path style="fill:#eb9844D5D6D4;" d="M148.039,211.413v3.399h2.951v-3.399H148.039z M148.543,214.109c0,0.138-0.09,0.251-0.217,0.251 c-0.108,0-0.217-0.112-0.217-0.251v-2.004c0-0.138,0.105-0.322,0.217-0.322c0.123,0,0.217,0.183,0.217,0.322V214.109z M149.385,214.165c0,0.142-0.15,0.254-0.322,0.254c-0.187,0-0.325-0.116-0.325-0.254v-2.109c0-0.142,0.138-0.333,0.325-0.333 c0.172,0,0.322,0.191,0.322,0.333V214.165z M150.264,214.165c0,0.142-0.146,0.254-0.325,0.254c-0.176,0-0.333-0.116-0.333-0.254 v-2.109c0-0.142,0.157-0.333,0.333-0.333c0.179,0,0.325,0.191,0.325,0.333V214.165z M150.892,214.109 c0,0.138-0.082,0.251-0.213,0.251c-0.112,0-0.209-0.112-0.209-0.251v-2.004c0-0.138,0.093-0.322,0.209-0.322 c0.127,0,0.213,0.183,0.213,0.322V214.109z"/> <path style="fill:#eb9844DDDFDA;" d="M151.131,211.032h-3.246c-0.112,0-0.194,0.079-0.194,0.165v0.105h3.646v-0.105 C151.337,211.11,151.251,211.032,151.131,211.032z"/> <path style="fill:#eb9844D0D1C5;" d="M147.691,211.29c0,0,0.269,0.269,0.374,0.269h2.891c0.097,0,0.381-0.269,0.381-0.269H147.691z"/> <g> <path style="fill:#eb9844DDDFDA;" d="M149.46,209.861c-0.83,0-1.496,0.546-1.496,1.215h2.992 C150.952,210.407,150.279,209.861,149.46,209.861z"/> <polygon style="fill:#eb9844DDDFDA;" points="149.482,208.126 149.381,209.057 149.381,210.201 149.579,210.201 149.579,209.057 "/> <ellipse style="fill:#eb9844DDDFDA;" cx="149.471" cy="208.866" rx="0.176" ry="0.108"/> <ellipse style="fill:#eb9844DDDFDA;" cx="149.471" cy="209.229" rx="0.176" ry="0.108"/> <ellipse style="fill:#eb9844DDDFDA;" cx="149.471" cy="209.603" rx="0.176" ry="0.105"/> <polygon style="fill:#eb9844DDDFDA;" points="150.862,215.508 148.068,215.508 147.227,239.987 151.737,239.987 "/> <path style="fill:#eb9844DDDFDA;" d="M151.161,214.569h-3.392c-0.112,0-0.198,0.131-0.198,0.295v0.198h3.796v-0.198 C151.363,214.7,151.266,214.569,151.161,214.569z"/> </g> <path style="fill:#eb9844D0D1C5;" d="M147.571,215.04c0,0,0.288,0.494,0.385,0.494h3.025c0.101,0,0.389-0.494,0.389-0.494H147.571z"/> <path style="fill:#eb9844D5D6D4;" d="M124.588,214.341v3.399h2.954v-3.399H124.588z M125.104,217.041c0,0.138-0.093,0.247-0.221,0.247 c-0.12,0-0.213-0.108-0.213-0.247v-2.008c0-0.138,0.09-0.322,0.213-0.322c0.123,0,0.221,0.183,0.221,0.322V217.041z M125.945,217.097c0,0.138-0.146,0.254-0.325,0.254c-0.183,0-0.325-0.116-0.325-0.254v-2.109c0-0.146,0.142-0.337,0.325-0.337 c0.179,0,0.325,0.191,0.325,0.337V217.097z M126.816,217.097c0,0.138-0.146,0.254-0.314,0.254c-0.191,0-0.333-0.116-0.333-0.254 v-2.109c0-0.146,0.142-0.337,0.333-0.337c0.168,0,0.314,0.191,0.314,0.337V217.097z M127.452,217.041 c0,0.138-0.101,0.247-0.213,0.247c-0.123,0-0.224-0.108-0.224-0.247v-2.008c0-0.138,0.097-0.322,0.224-0.322 c0.108,0,0.213,0.183,0.213,0.322V217.041z"/> <path style="fill:#eb9844DDDFDA;" d="M127.691,213.963h-3.257c-0.101,0-0.191,0.075-0.191,0.165v0.105h3.642v-0.105 C127.886,214.038,127.804,213.963,127.691,213.963z"/> <path style="fill:#eb9844D0D1C5;" d="M124.244,214.225c0,0,0.273,0.269,0.37,0.269h2.898c0.093,0,0.374-0.269,0.374-0.269H124.244z"/> <g> <path style="fill:#eb9844DDDFDA;" d="M126.009,212.793c-0.823,0-1.492,0.546-1.492,1.215h2.995 C127.512,213.339,126.835,212.793,126.009,212.793z"/> <polygon style="fill:#eb9844DDDFDA;" points="126.031,211.054 125.941,211.989 125.941,213.133 126.128,213.133 126.128,211.989 "/> <ellipse style="fill:#eb9844DDDFDA;" cx="126.035" cy="211.798" rx="0.183" ry="0.108"/> <ellipse style="fill:#eb9844DDDFDA;" cx="126.035" cy="212.168" rx="0.183" ry="0.108"/> <ellipse style="fill:#eb9844DDDFDA;" cx="126.035" cy="212.524" rx="0.183" ry="0.108"/> <polygon style="fill:#eb9844DDDFDA;" points="127.419,218.436 124.618,218.436 123.776,242.915 128.297,242.915 "/> <path style="fill:#eb9844DDDFDA;" d="M127.714,217.497h-3.381c-0.116,0-0.213,0.138-0.213,0.299v0.198h3.792v-0.198 C127.912,217.636,127.826,217.497,127.714,217.497z"/> </g> <path style="fill:#eb9844D0D1C5;" d="M124.12,217.969c0,0,0.28,0.494,0.389,0.494h3.025c0.093,0,0.381-0.494,0.381-0.494H124.12z"/> <path style="fill:#eb9844D5D6D4;" d="M141.004,220.497v3.396h2.947v-3.396H141.004z M141.517,223.2c0,0.135-0.105,0.239-0.224,0.239 c-0.108,0-0.213-0.105-0.213-0.239v-2.016c0-0.135,0.101-0.314,0.213-0.314c0.116,0,0.224,0.179,0.224,0.314V223.2z M142.347,223.253c0,0.142-0.15,0.258-0.329,0.258c-0.176,0-0.31-0.12-0.31-0.258v-2.109c0-0.146,0.135-0.333,0.31-0.333 c0.18,0,0.329,0.191,0.329,0.333V223.253z M143.229,223.253c0,0.142-0.146,0.258-0.333,0.258c-0.172,0-0.318-0.12-0.318-0.258 v-2.109c0-0.146,0.146-0.333,0.318-0.333c0.187,0,0.333,0.191,0.333,0.333V223.253z M143.865,223.2c0,0.135-0.093,0.239-0.209,0.239 c-0.127,0-0.221-0.105-0.221-0.239v-2.016c0-0.135,0.09-0.314,0.221-0.314c0.112,0,0.209,0.179,0.209,0.314V223.2z"/> <path style="fill:#eb9844DDDFDA;" d="M144.101,220.123h-3.246c-0.112,0-0.202,0.071-0.202,0.157v0.108h3.646v-0.108 C144.299,220.19,144.213,220.123,144.101,220.123z"/> <path style="fill:#eb9844D0D1C5;" d="M140.653,220.381c0,0,0.277,0.266,0.37,0.266h2.909c0.093,0,0.366-0.266,0.366-0.266H140.653z"/> <g> <path style="fill:#eb9844DDDFDA;" d="M142.429,218.948c-0.83,0-1.503,0.542-1.503,1.212h2.995 C143.918,219.491,143.248,218.948,142.429,218.948z"/> <polygon style="fill:#eb9844DDDFDA;" points="142.452,217.209 142.347,218.137 142.347,219.292 142.541,219.292 142.541,218.137 "/> <path style="fill:#eb9844DDDFDA;" d="M142.452,217.845c-0.101,0-0.187,0.049-0.187,0.108s0.082,0.108,0.187,0.108 c0.09,0,0.172-0.049,0.172-0.108S142.541,217.845,142.452,217.845z"/> <path style="fill:#eb9844DDDFDA;" d="M142.452,218.215c-0.101,0-0.187,0.045-0.187,0.108c0,0.06,0.082,0.108,0.187,0.108 c0.09,0,0.172-0.049,0.172-0.108C142.624,218.264,142.541,218.215,142.452,218.215z"/> <path style="fill:#eb9844DDDFDA;" d="M142.452,218.567c-0.101,0-0.187,0.052-0.187,0.105c0,0.064,0.082,0.112,0.187,0.112 c0.09,0,0.172-0.049,0.172-0.112C142.624,218.619,142.541,218.567,142.452,218.567z"/> <polygon style="fill:#eb9844DDDFDA;" points="143.828,224.591 141.031,224.591 140.197,249.071 144.707,249.071 "/> <path style="fill:#eb9844DDDFDA;" d="M144.119,223.656h-3.384c-0.105,0-0.198,0.131-0.198,0.303v0.194h3.796v-0.194 C144.333,223.787,144.235,223.656,144.119,223.656z"/> </g> <path style="fill:#eb9844D0D1C5;" d="M140.537,224.124c0,0,0.284,0.497,0.378,0.497h3.033c0.094,0,0.389-0.497,0.389-0.497H140.537z"/> <g> <rect x="149.321" y="228.376" style="fill:#eb9844CBCCCA;" width="42.654" height="87.177"/> <polygon style="fill:#eb9844CBCCCA;" points="123.694,232.628 123.694,317.037 149.317,317.037 149.317,228.394 "/> </g> <g> <rect x="149.321" y="233.462" style="fill:#eb9844DDDFDA;" width="42.654" height="87.177"/> <polygon style="fill:#eb9844DDDFDA;" points="123.694,237.684 123.694,322.093 149.317,322.093 149.317,233.447 "/> </g> <rect x="157.324" y="283.613" style="fill:#eb9844C6C6C6;" width="27.25" height="35.212"/> <rect x="159.515" y="285.367" style="fill:#eb9844E5E5E5;" width="22.864" height="31.917"/> <rect x="161.325" y="287.536" style="fill:#eb9844D3D3D3;" width="19.24" height="27.822"/> <g> <path style="fill:#eb9844C6C6C6;" d="M178.658,292.248c-2.247-1.9-7.472-3.863-7.472-3.863s-4.832,1.675-7.662,4.057 c-1.851,1.567-2.195,3.811-2.195,3.811v19.094h19.24v-19.094C180.569,296.257,180.678,293.957,178.658,292.248z"/> <rect x="157.324" y="241.427" style="fill:#eb9844C6C6C6;" width="27.25" height="35.208"/> </g> <rect x="159.515" y="243.185" style="fill:#eb9844E5E5E5;" width="22.864" height="31.91"/> <rect x="161.325" y="245.316" style="fill:#eb9844D3D3D3;" width="19.24" height="27.822"/> <g> <path style="fill:#eb9844C6C6C6;" d="M178.658,250.054c-2.247-1.9-7.472-3.867-7.472-3.867s-4.832,1.679-7.662,4.061 c-1.851,1.559-2.195,3.811-2.195,3.811v19.094h19.24v-19.094C180.569,254.059,180.678,251.763,178.658,250.054z"/> <polygon style="fill:#eb9844C6C6C6;" points="126.334,286.979 126.334,322.576 145.241,319.849 145.241,284.256 "/> </g> <polygon style="fill:#eb9844E5E5E5;" points="127.856,288.538 127.856,320.803 143.712,318.518 143.712,286.257 "/> <polygon style="fill:#eb9844D3D3D3;" points="129.116,290.539 129.116,318.664 142.459,316.742 142.459,288.617 "/> <g> <path style="fill:#eb9844C6C6C6;" d="M141.128,293.575c-1.544-1.698-5.179-3.156-5.179-3.156s-3.351,2.18-5.31,4.869 c-1.29,1.773-1.522,4.069-1.522,4.069v19.307l13.339-1.922v-19.307C142.459,297.434,142.538,295.105,141.128,293.575z"/> <polygon style="fill:#eb9844C6C6C6;" points="126.334,245.391 126.334,280.599 145.241,277.929 145.241,242.728 "/> </g> <polygon style="fill:#eb9844E5E5E5;" points="127.856,246.935 127.856,278.849 143.712,276.609 143.712,244.695 "/> <polygon style="fill:#eb9844D3D3D3;" points="129.116,248.914 129.116,276.74 142.459,274.851 142.459,247.029 "/> <path style="fill:#eb9844C6C6C6;" d="M141.128,251.935c-1.544-1.687-5.179-3.134-5.179-3.134s-3.351,2.15-5.31,4.809 c-1.29,1.746-1.522,4.028-1.522,4.028v19.098l13.339-1.885v-19.098C142.459,255.753,142.538,253.446,141.128,251.935z"/> <g> <path style="fill:#eb9844B2B2B2;" d="M282.91,215.246l0.004,0.307L282.91,215.246L282.91,215.246z M282.914,210.721v4.521 c0.856-0.509,1.881-0.845,2.992-0.845c2.883,0,5.22,2.262,5.22,3.956v24.988c0,1.694-2.337,3.066-5.22,3.066 c-0.957,0-1.851-0.153-2.625-0.415l-0.366-30.444V251h33.522v-40.279H282.914z M305.205,243.345c0,1.694-2.337,3.066-5.217,3.066 c-2.883,0-5.22-1.372-5.22-3.066v-24.988c0-1.69,2.337-3.956,5.22-3.956c2.879,0,5.217,2.262,5.217,3.956V243.345z M315.179,242.751c0,1.619-1.559,2.921-3.485,2.921c-1.911,0-3.478-1.305-3.478-2.921v-23.84c0-1.615,1.567-3.773,3.478-3.773 c1.926,0,3.485,2.158,3.485,3.773V242.751z"/> <path style="fill:#eb9844B2B2B2;" d="M282.91,210.721v40.283h33.522v-35.758l-0.363,30.747c-0.778,0.262-1.668,0.415-2.621,0.415 c-2.883,0-5.228-1.372-5.228-3.066v-24.988c0-1.69,2.345-3.956,5.228-3.956c1.111,0,2.135,0.337,2.984,0.849v-4.525H282.91z M291.126,242.751c0,1.619-1.556,2.921-3.478,2.921c-1.922,0-3.482-1.305-3.482-2.921v-23.84c0-1.615,1.559-3.773,3.482-3.773 c1.922,0,3.478,2.158,3.478,3.773V242.751z M304.585,243.345c0,1.694-2.341,3.066-5.224,3.066c-2.879,0-5.217-1.372-5.217-3.066 v-24.988c0-1.69,2.337-3.956,5.217-3.956c2.883,0,5.224,2.262,5.224,3.956V243.345z"/> </g> <path style="fill:#eb9844DDDFDA;" d="M319.36,206.26h-38.555c-1.275,0-2.304,0.856-2.304,1.911v1.275h43.173v-1.275 C321.671,207.116,320.635,206.26,319.36,206.26z"/> <path style="fill:#eb9844D0D1C5;" d="M278.501,209.285c0,0,3.235,3.179,4.379,3.179h34.419c1.137,0,4.375-3.179,4.375-3.179H278.501z"/> <g> <path style="fill:#eb9844DDDFDA;" d="M300.725,192.33c-9.798,0-17.744,6.466-17.744,14.442h35.496 C318.477,198.796,310.53,192.33,300.725,192.33z"/> <polygon style="fill:#eb9844DDDFDA;" points="300.471,171.729 299.304,182.787 299.304,196.372 301.593,196.372 301.593,182.787 "/> <ellipse style="fill:#eb9844DDDFDA;" cx="300.437" cy="180.547" rx="2.102" ry="1.279"/> <ellipse style="fill:#eb9844DDDFDA;" cx="300.437" cy="184.959" rx="2.102" ry="1.275"/> <ellipse style="fill:#eb9844DDDFDA;" cx="300.437" cy="189.14" rx="2.102" ry="1.275"/> </g> <g> <path style="fill:#eb9844D5D6D4;" d="M282.611,210.721v40.283h34.943v-40.283H282.611z M288.762,242.751c0,1.619-1.152,2.921-2.565,2.921 c-1.414,0-2.569-1.305-2.569-2.921v-23.84c0-1.615,1.156-3.773,2.569-3.773c1.414,0,2.565,2.158,2.565,3.773V242.751z M298.885,243.345c0,1.694-1.728,3.066-3.859,3.066c-2.128,0-3.852-1.372-3.852-3.066v-24.988c0-1.69,1.724-3.956,3.852-3.956 c2.132,0,3.859,2.262,3.859,3.956V243.345z M309.27,243.345c0,1.694-1.724,3.066-3.852,3.066c-2.124,0-3.848-1.372-3.848-3.066 v-24.988c0-1.69,1.724-3.956,3.848-3.956c2.128,0,3.852,2.262,3.852,3.956V243.345z M316.63,242.751 c0,1.619-1.148,2.921-2.565,2.921s-2.562-1.305-2.562-2.921v-23.84c0-1.615,1.144-3.773,2.562-3.773s2.565,2.158,2.565,3.773 V242.751z"/> <path style="fill:#eb9844D5D6D4;" d="M342.41,204.237v3.396h2.947v-3.396H342.41z M342.93,206.937c0,0.135-0.09,0.247-0.209,0.247 c-0.131,0-0.221-0.112-0.221-0.247v-2.016c0-0.138,0.086-0.314,0.221-0.314c0.116,0,0.209,0.176,0.209,0.314V206.937z M343.783,206.982c0,0.142-0.142,0.254-0.325,0.254c-0.18,0-0.325-0.112-0.325-0.254v-2.109c0-0.138,0.146-0.333,0.325-0.333 c0.183,0,0.325,0.194,0.325,0.333V206.982z M344.669,206.982c0,0.142-0.15,0.254-0.337,0.254c-0.18,0-0.322-0.112-0.322-0.254 v-2.109c0-0.138,0.142-0.333,0.322-0.333c0.187,0,0.337,0.194,0.337,0.333V206.982z M345.286,206.937 c0,0.135-0.097,0.247-0.221,0.247c-0.116,0-0.228-0.112-0.228-0.247v-2.016c0-0.138,0.108-0.314,0.228-0.314 s0.221,0.176,0.221,0.314V206.937z"/> </g> <path style="fill:#eb9844DDDFDA;" d="M345.514,203.859h-3.261c-0.108,0-0.198,0.067-0.198,0.157v0.112h3.65v-0.112 C345.705,203.926,345.615,203.859,345.514,203.859z"/> <path style="fill:#eb9844D0D1C5;" d="M342.059,204.11c0,0,0.284,0.269,0.381,0.269h2.902c0.09,0,0.366-0.269,0.366-0.269H342.059z"/> <g> <path style="fill:#eb9844DDDFDA;" d="M343.944,202.677c-0.826,0-1.5,0.546-1.5,1.223h2.992 C345.432,203.223,344.766,202.677,343.944,202.677z"/> <polygon style="fill:#eb9844DDDFDA;" points="343.921,200.946 343.82,201.877 343.82,203.018 344.011,203.018 344.011,201.877 "/> <ellipse style="fill:#eb9844DDDFDA;" cx="343.929" cy="201.675" rx="0.183" ry="0.105"/> <ellipse style="fill:#eb9844DDDFDA;" cx="343.929" cy="202.049" rx="0.183" ry="0.108"/> <ellipse style="fill:#eb9844DDDFDA;" cx="343.929" cy="202.423" rx="0.183" ry="0.108"/> <polygon style="fill:#eb9844DDDFDA;" points="345.338,208.328 342.541,208.328 341.659,232.807 346.176,232.807 "/> <path style="fill:#eb9844DDDFDA;" d="M345.626,207.393h-3.388c-0.101,0-0.198,0.131-0.198,0.295v0.198h3.788v-0.198 C345.825,207.524,345.739,207.393,345.626,207.393z"/> </g> <path style="fill:#eb9844D0D1C5;" d="M342.04,207.857c0,0,0.284,0.497,0.385,0.497h3.014c0.105,0,0.389-0.497,0.389-0.497H342.04z"/> <path style="fill:#eb9844D5D6D4;" d="M324.101,211.413v3.399h2.951v-3.399H324.101z M324.614,214.109c0,0.138-0.09,0.251-0.217,0.251 c-0.112,0-0.213-0.112-0.213-0.251v-2.004c0-0.138,0.097-0.322,0.213-0.322c0.123,0,0.217,0.183,0.217,0.322V214.109z M325.466,214.165c0,0.142-0.138,0.254-0.329,0.254c-0.168,0-0.314-0.116-0.314-0.254v-2.109c0-0.142,0.146-0.333,0.314-0.333 c0.191,0,0.329,0.191,0.329,0.333V214.165z M326.341,214.165c0,0.142-0.138,0.254-0.318,0.254c-0.187,0-0.333-0.116-0.333-0.254 v-2.109c0-0.142,0.146-0.333,0.333-0.333c0.18,0,0.318,0.191,0.318,0.333V214.165z M326.962,214.109 c0,0.138-0.093,0.251-0.213,0.251s-0.217-0.112-0.217-0.251v-2.004c0-0.138,0.097-0.322,0.217-0.322s0.213,0.183,0.213,0.322 V214.109z"/> <path style="fill:#eb9844DDDFDA;" d="M327.194,211.032h-3.25c-0.105,0-0.191,0.079-0.191,0.165v0.105h3.635v-0.105 C327.388,211.11,327.302,211.032,327.194,211.032z"/> <path style="fill:#eb9844D0D1C5;" d="M323.754,211.29c0,0,0.262,0.269,0.363,0.269h2.898c0.101,0,0.374-0.269,0.374-0.269H323.754z"/> <g> <path style="fill:#eb9844DDDFDA;" d="M325.623,209.861c-0.826,0-1.492,0.546-1.492,1.215h2.995 C327.123,210.407,326.457,209.861,325.623,209.861z"/> <polygon style="fill:#eb9844DDDFDA;" points="325.601,208.126 325.504,209.057 325.504,210.201 325.702,210.201 325.702,209.057 "/> <ellipse style="fill:#eb9844DDDFDA;" cx="325.605" cy="208.866" rx="0.176" ry="0.108"/> <ellipse style="fill:#eb9844DDDFDA;" cx="325.605" cy="209.229" rx="0.176" ry="0.108"/> <ellipse style="fill:#eb9844DDDFDA;" cx="325.605" cy="209.603" rx="0.176" ry="0.105"/> <polygon style="fill:#eb9844DDDFDA;" points="327.015,215.508 324.225,215.508 323.335,239.987 327.856,239.987 "/> <path style="fill:#eb9844DDDFDA;" d="M327.306,214.569h-3.381c-0.112,0-0.206,0.131-0.206,0.295v0.198h3.799v-0.198 C327.519,214.7,327.43,214.569,327.306,214.569z"/> </g> <path style="fill:#eb9844D0D1C5;" d="M323.72,215.04c0,0,0.277,0.494,0.389,0.494h3.022c0.101,0,0.389-0.494,0.389-0.494H323.72z"/> <path style="fill:#eb9844D5D6D4;" d="M347.541,214.341v3.399h2.947v-3.399H347.541z M348.068,217.041c0,0.138-0.101,0.247-0.224,0.247 c-0.123,0-0.217-0.108-0.217-0.247v-2.008c0-0.138,0.09-0.322,0.217-0.322c0.12,0,0.224,0.183,0.224,0.322V217.041z M348.91,217.097 c0,0.138-0.146,0.254-0.325,0.254s-0.322-0.116-0.322-0.254v-2.109c0-0.146,0.142-0.337,0.322-0.337s0.325,0.191,0.325,0.337 V217.097z M349.792,217.097c0,0.138-0.15,0.254-0.325,0.254c-0.191,0-0.325-0.116-0.325-0.254v-2.109 c0-0.146,0.135-0.337,0.325-0.337c0.176,0,0.325,0.191,0.325,0.337V217.097z M350.413,217.041c0,0.138-0.097,0.247-0.224,0.247 c-0.116,0-0.221-0.108-0.221-0.247v-2.008c0-0.138,0.101-0.322,0.221-0.322c0.123,0,0.224,0.183,0.224,0.322V217.041z"/> <path style="fill:#eb9844DDDFDA;" d="M350.637,213.963h-3.25c-0.097,0-0.194,0.075-0.194,0.165v0.105h3.642v-0.105 C350.832,214.038,350.757,213.963,350.637,213.963z"/> <path style="fill:#eb9844D0D1C5;" d="M347.193,214.225c0,0,0.273,0.269,0.37,0.269h2.906c0.094,0,0.366-0.269,0.366-0.269H347.193z"/> <g> <path style="fill:#eb9844DDDFDA;" d="M349.067,212.793c-0.819,0-1.488,0.546-1.488,1.215h2.992 C350.566,213.339,349.889,212.793,349.067,212.793z"/> <polygon style="fill:#eb9844DDDFDA;" points="349.056,211.054 348.943,211.989 348.943,213.133 349.145,213.133 349.145,211.989 "/> <ellipse style="fill:#eb9844DDDFDA;" cx="349.052" cy="211.798" rx="0.176" ry="0.108"/> <ellipse style="fill:#eb9844DDDFDA;" cx="349.052" cy="212.168" rx="0.176" ry="0.108"/> <ellipse style="fill:#eb9844DDDFDA;" cx="349.052" cy="212.524" rx="0.176" ry="0.108"/> <polygon style="fill:#eb9844DDDFDA;" points="350.458,218.436 347.668,218.436 346.793,242.915 351.307,242.915 "/> <path style="fill:#eb9844DDDFDA;" d="M350.757,217.497h-3.388c-0.112,0-0.206,0.138-0.206,0.299v0.198h3.796v-0.198 C350.955,217.636,350.862,217.497,350.757,217.497z"/> </g> <path style="fill:#eb9844D0D1C5;" d="M347.163,217.969c0,0,0.292,0.494,0.385,0.494h3.029c0.093,0,0.385-0.494,0.385-0.494H347.163z"/> <path style="fill:#eb9844D5D6D4;" d="M331.136,220.497v3.396h2.947v-3.396H331.136z M331.648,223.2c0,0.135-0.094,0.239-0.213,0.239 c-0.123,0-0.213-0.105-0.213-0.239v-2.016c0-0.135,0.086-0.314,0.213-0.314c0.116,0,0.213,0.179,0.213,0.314V223.2z M332.508,223.253c0,0.142-0.146,0.258-0.325,0.258c-0.183,0-0.329-0.12-0.329-0.258v-2.109c0-0.146,0.146-0.333,0.329-0.333 c0.179,0,0.325,0.191,0.325,0.333V223.253z M333.379,223.253c0,0.142-0.146,0.258-0.333,0.258c-0.176,0-0.318-0.12-0.318-0.258 v-2.109c0-0.146,0.142-0.333,0.318-0.333c0.187,0,0.333,0.191,0.333,0.333V223.253z M333.996,223.2c0,0.135-0.086,0.239-0.217,0.239 c-0.123,0-0.217-0.105-0.217-0.239v-2.016c0-0.135,0.09-0.314,0.217-0.314s0.217,0.179,0.217,0.314V223.2z"/> <path style="fill:#eb9844DDDFDA;" d="M334.236,220.123h-3.257c-0.108,0-0.194,0.071-0.194,0.157v0.108h3.642v-0.108 C334.426,220.19,334.333,220.123,334.236,220.123z"/> <path style="fill:#eb9844D0D1C5;" d="M330.784,220.381c0,0,0.269,0.266,0.363,0.266h2.906c0.101,0,0.374-0.266,0.374-0.266H330.784z"/> <g> <path style="fill:#eb9844DDDFDA;" d="M332.661,218.948c-0.834,0-1.503,0.542-1.503,1.212h2.999 C334.153,219.491,333.488,218.948,332.661,218.948z"/> <polygon style="fill:#eb9844DDDFDA;" points="332.635,217.209 332.538,218.137 332.538,219.292 332.729,219.292 332.729,218.137 "/> <ellipse style="fill:#eb9844DDDFDA;" cx="332.635" cy="217.942" rx="0.179" ry="0.108"/> <ellipse style="fill:#eb9844DDDFDA;" cx="332.635" cy="218.316" rx="0.179" ry="0.108"/> <ellipse style="fill:#eb9844DDDFDA;" cx="332.635" cy="218.69" rx="0.179" ry="0.108"/> <polygon style="fill:#eb9844DDDFDA;" points="334.049,224.591 331.255,224.591 330.373,249.071 334.894,249.071 "/> <path style="fill:#eb9844DDDFDA;" d="M334.348,223.656h-3.392c-0.105,0-0.202,0.131-0.202,0.303v0.194h3.784v-0.194 C334.539,223.787,334.456,223.656,334.348,223.656z"/> </g> <path style="fill:#eb9844D0D1C5;" d="M330.754,224.124c0,0,0.28,0.497,0.389,0.497h3.018c0.105,0,0.381-0.497,0.381-0.497H330.754z"/> <g> <rect x="283.123" y="228.376" style="fill:#eb9844CBCCCA;" width="42.654" height="87.177"/> <polygon style="fill:#eb9844CBCCCA;" points="325.762,228.394 325.762,317.037 351.385,317.037 351.385,232.628 "/> </g> <g> <rect x="283.123" y="233.462" style="fill:#eb9844DDDFDA;" width="42.654" height="87.177"/> <polygon style="fill:#eb9844DDDFDA;" points="325.762,233.447 325.762,322.093 351.385,322.093 351.385,237.684 "/> </g> <rect x="290.49" y="283.613" style="fill:#eb9844C6C6C6;" width="27.247" height="35.212"/> <rect x="292.696" y="285.367" style="fill:#eb9844E5E5E5;" width="22.867" height="31.917"/> <rect x="294.529" y="287.536" style="fill:#eb9844D3D3D3;" width="19.236" height="27.822"/> <g> <path style="fill:#eb9844C6C6C6;" d="M311.551,292.446c-2.831-2.382-7.67-4.057-7.67-4.057s-5.22,1.963-7.464,3.863 c-2.016,1.709-1.903,4.005-1.903,4.005v19.094h19.236v-19.094C313.75,296.257,313.41,294.009,311.551,292.446z"/> <rect x="290.49" y="241.427" style="fill:#eb9844C6C6C6;" width="27.247" height="35.208"/> </g> <rect x="292.696" y="243.185" style="fill:#eb9844E5E5E5;" width="22.867" height="31.91"/> <rect x="294.529" y="245.316" style="fill:#eb9844D3D3D3;" width="19.236" height="27.822"/> <g> <path style="fill:#eb9844C6C6C6;" d="M311.551,250.249c-2.831-2.382-7.67-4.061-7.67-4.061s-5.22,1.963-7.464,3.867 c-2.016,1.709-1.903,4.005-1.903,4.005v19.094h19.236v-19.094C313.75,254.059,313.41,251.812,311.551,250.249z"/> <polygon style="fill:#eb9844C6C6C6;" points="329.845,284.256 329.845,319.849 348.753,322.576 348.753,286.979 "/> </g> <polygon style="fill:#eb9844E5E5E5;" points="331.371,286.257 331.371,318.518 347.219,320.803 347.219,288.538 "/> <polygon style="fill:#eb9844D3D3D3;" points="332.631,288.617 332.631,316.742 345.963,318.664 345.963,290.539 "/> <g> <path style="fill:#eb9844C6C6C6;" d="M344.445,295.284c-1.963-2.689-5.321-4.869-5.321-4.869s-3.624,1.458-5.187,3.156 c-1.391,1.529-1.309,3.859-1.309,3.859v19.307l13.328,1.922v-19.307C345.963,299.357,345.739,297.057,344.445,295.284z"/> <polygon style="fill:#eb9844C6C6C6;" points="329.845,242.728 329.845,277.929 348.753,280.599 348.753,245.391 "/> </g> <polygon style="fill:#eb9844E5E5E5;" points="331.371,244.695 331.371,276.609 347.219,278.849 347.219,246.935 "/> <polygon style="fill:#eb9844D3D3D3;" points="332.631,247.029 332.631,274.851 345.963,276.74 345.963,248.914 "/> <path style="fill:#eb9844C6C6C6;" d="M344.445,253.614c-1.963-2.659-5.321-4.809-5.321-4.809s-3.624,1.447-5.187,3.134 c-1.391,1.511-1.309,3.818-1.309,3.818v19.098l13.328,1.885v-19.098C345.963,257.638,345.739,255.361,344.445,253.614z"/> <rect x="47.665" y="320.893" style="fill:#eb9844D5D6D4;" width="376.388" height="29.285"/> <rect x="47.665" y="320.893" style="fill:#eb9844C9C9C9;" width="376.388" height="8.19"/> <path style="fill:#eb9844D5D6D4;" d="M52.851,145.092v21.394h18.56v-21.394H52.851z M56.064,162.103c0,0.86-0.606,1.552-1.357,1.552 c-0.755,0-1.361-0.692-1.361-1.552v-12.662c0-0.856,0.606-2.001,1.361-2.001c0.752,0,1.357,1.144,1.357,2.001V162.103z M61.34,162.421c0,0.898-0.924,1.623-2.049,1.623c-1.133,0-2.034-0.725-2.034-1.623v-13.275c0-0.894,0.901-2.098,2.034-2.098 c1.126,0,2.049,1.2,2.049,2.098V162.421z M66.864,162.421c0,0.898-0.916,1.623-2.053,1.623c-1.126,0-2.046-0.725-2.046-1.623 v-13.275c0-0.894,0.92-2.098,2.046-2.098c1.137,0,2.053,1.2,2.053,2.098V162.421z M70.861,162.103c0,0.86-0.613,1.552-1.354,1.552 c-0.748,0-1.361-0.692-1.361-1.552v-12.662c0-0.856,0.613-2.001,1.361-2.001c0.74,0,1.354,1.144,1.354,2.001V162.103z"/> <path style="fill:#eb9844DDDFDA;" d="M72.361,142.725H51.883c-0.677,0-1.223,0.456-1.223,1.013v0.677h22.935v-0.677 C73.599,143.177,73.045,142.725,72.361,142.725z"/> <path style="fill:#eb9844D0D1C5;" d="M50.664,144.333c0,0,1.72,1.687,2.322,1.687h18.29c0.595,0,2.322-1.687,2.322-1.687H50.664z"/> <g> <path style="fill:#eb9844DDDFDA;" d="M61.789,135.328c-5.217,0-9.427,3.429-9.427,7.662h18.855 C71.22,138.757,66.994,135.328,61.789,135.328z"/> <polygon style="fill:#eb9844DDDFDA;" points="61.92,124.386 61.318,130.257 61.318,137.478 62.541,137.478 62.541,130.257 "/> <path style="fill:#eb9844DDDFDA;" d="M61.931,128.391c-0.613,0-1.111,0.303-1.111,0.681c0,0.37,0.497,0.677,1.111,0.677 c0.625,0,1.126-0.307,1.126-0.677C63.057,128.69,62.556,128.391,61.931,128.391z"/> <path style="fill:#eb9844DDDFDA;" d="M61.931,130.736c-0.613,0-1.111,0.307-1.111,0.673c0,0.381,0.497,0.681,1.111,0.681 c0.625,0,1.126-0.299,1.126-0.681C63.057,131.042,62.556,130.736,61.931,130.736z"/> <path style="fill:#eb9844DDDFDA;" d="M61.931,132.957c-0.613,0-1.111,0.307-1.111,0.681s0.497,0.677,1.111,0.677 c0.625,0,1.126-0.303,1.126-0.677S62.556,132.957,61.931,132.957z"/> <polygon style="fill:#eb9844DDDFDA;" points="70.603,170.88 53.02,170.88 47.739,325.018 76.171,325.018 "/> <path style="fill:#eb9844DDDFDA;" d="M76.463,266.998h-29.3c-0.976,0-1.761,1.148-1.761,2.573v1.709h32.819v-1.709 C78.224,268.146,77.432,266.998,76.463,266.998z"/> </g> <path style="fill:#eb9844D0D1C5;" d="M45.402,271.067c0,0,2.461,4.282,3.332,4.282h26.155c0.875,0,3.336-4.282,3.336-4.282H45.402z"/> <path style="fill:#eb9844DDDFDA;" d="M74.679,217.329H49.235c-0.834,0-1.526,1.002-1.526,2.233v1.488h28.496v-1.488 C76.205,218.328,75.517,217.329,74.679,217.329z"/> <path style="fill:#eb9844D0D1C5;" d="M47.709,220.859c0,0,2.139,3.717,2.891,3.717h22.707c0.759,0,2.894-3.717,2.894-3.717H47.709z"/> <path style="fill:#eb9844DDDFDA;" d="M72.499,164.971H51.176c-0.703,0-1.283,0.838-1.283,1.87v1.245h23.885v-1.245 C73.774,165.809,73.198,164.971,72.499,164.971z"/> <path style="fill:#eb9844D0D1C5;" d="M49.893,167.933c0,0,1.795,3.115,2.427,3.115h19.034c0.636,0,2.42-3.115,2.42-3.115H49.893z"/> <rect x="53.738" y="323.847" style="fill:#eb9844D8D8D8;" width="11.705" height="22.853"/> <polygon style="fill:#eb9844D5D6D4;" points="65.443,323.851 65.443,346.703 76.171,346.703 76.171,325.018 "/> <polygon style="fill:#eb9844D2D3D1;" points="47.9,325.018 47.9,346.703 53.738,346.703 53.738,323.851 "/> <path style="fill:#eb9844D5D6D4;" d="M400.116,145.092v21.394h18.567v-21.394H400.116z M403.384,162.103c0,0.86-0.617,1.552-1.365,1.552 c-0.748,0-1.365-0.692-1.365-1.552v-12.662c0-0.856,0.617-2.001,1.365-2.001c0.748,0,1.365,1.144,1.365,2.001V162.103z M408.754,162.421c0,0.898-0.912,1.623-2.038,1.623c-1.133,0-2.053-0.725-2.053-1.623v-13.275c0-0.894,0.92-2.098,2.053-2.098 c1.126,0,2.038,1.2,2.038,2.098V162.421z M414.274,162.421c0,0.898-0.912,1.623-2.042,1.623c-1.126,0-2.049-0.725-2.049-1.623 v-13.275c0-0.894,0.924-2.098,2.049-2.098c1.129,0,2.042,1.2,2.042,2.098V162.421z M418.182,162.103c0,0.86-0.61,1.552-1.361,1.552 c-0.755,0-1.361-0.692-1.361-1.552v-12.662c0-0.856,0.606-2.001,1.361-2.001c0.752,0,1.361,1.144,1.361,2.001V162.103z"/> <path style="fill:#eb9844DDDFDA;" d="M419.636,142.725h-20.485c-0.673,0-1.223,0.456-1.223,1.013v0.677h22.935v-0.677 C420.863,143.177,420.313,142.725,419.636,142.725z"/> <path style="fill:#eb9844D0D1C5;" d="M397.928,144.333c0,0,1.716,1.687,2.33,1.687h18.283c0.602,0,2.322-1.687,2.322-1.687H397.928z"/> <g> <path style="fill:#eb9844DDDFDA;" d="M409.738,135.328c-5.213,0-9.427,3.429-9.427,7.662h18.851 C419.161,138.757,414.951,135.328,409.738,135.328z"/> <polygon style="fill:#eb9844DDDFDA;" points="409.603,124.386 408.982,130.257 408.982,137.478 410.205,137.478 410.205,130.257 "/> <ellipse style="fill:#eb9844DDDFDA;" cx="409.596" cy="129.068" rx="1.126" ry="0.677"/> <ellipse style="fill:#eb9844DDDFDA;" cx="409.596" cy="131.409" rx="1.126" ry="0.677"/> <ellipse style="fill:#eb9844DDDFDA;" cx="409.596" cy="133.634" rx="1.126" ry="0.677"/> <polygon style="fill:#eb9844DDDFDA;" points="418.503,170.88 400.923,170.88 395.351,325.018 423.78,325.018 "/> <path style="fill:#eb9844DDDFDA;" d="M424.356,266.998H395.06c-0.969,0-1.761,1.148-1.761,2.573v1.709h32.819v-1.709 C426.121,268.146,425.332,266.998,424.356,266.998z"/> </g> <path style="fill:#eb9844D0D1C5;" d="M393.302,271.067c0,0,2.457,4.282,3.336,4.282h26.158c0.868,0,3.328-4.282,3.328-4.282H393.302z"/> <path style="fill:#eb9844DDDFDA;" d="M422.288,217.329h-25.444c-0.834,0-1.522,1.002-1.522,2.233v1.488h28.492v-1.488 C423.813,218.328,423.125,217.329,422.288,217.329z"/> <path style="fill:#eb9844D0D1C5;" d="M395.322,220.859c0,0,2.135,3.717,2.891,3.717h22.707c0.748,0,2.891-3.717,2.891-3.717H395.322z"/> <path style="fill:#eb9844DDDFDA;" d="M420.347,164.971h-21.319c-0.703,0-1.279,0.838-1.279,1.87v1.245h23.885v-1.245 C421.633,165.809,421.054,164.971,420.347,164.971z"/> <path style="fill:#eb9844D0D1C5;" d="M397.749,167.933c0,0,1.784,3.115,2.42,3.115h19.038c0.628,0,2.423-3.115,2.423-3.115H397.749z"/> <rect x="406.193" y="323.847" style="fill:#eb9844D8D8D8;" width="11.813" height="22.853"/> <polygon style="fill:#eb9844D5D6D4;" points="395.351,325.018 395.351,346.703 406.189,346.703 406.189,323.851 "/> <polygon style="fill:#eb9844D2D3D1;" points="418.002,323.851 418.002,346.703 423.911,346.703 423.911,325.018 "/> </g>
</svg>