<!DOCTYPE svg PUBLIC "-//W3C//DTD SVG 1.1//EN" "http://www.w3.org/Graphics/SVG/1.1/DTD/svg11.dtd">
<!-- Uploaded to: SVG Repo, www.svgrepo.com, Transformed by: SVG Repo Mixer Tools -->
<svg version="1.1" id="Layer_1" xmlns="http://www.w3.org/2000/svg" xmlns:xlink="http://www.w3.org/1999/xlink" viewBox="0 0 473.654 473.654" xml:space="preserve" width="800px" height="800px" fill="#000000">
<g id="SVGRepo_bgCarrier" stroke-width="0"/>
<g id="SVGRepo_tracerCarrier" stroke-linecap="round" stroke-linejoin="round"/>
<g id="SVGRepo_iconCarrier"> <circle style="fill:#eb9844;" cx="236.827" cy="236.827" r="236.827"/> <rect x="188.213" y="244.68" style="fill:#eb9844CCB196;" width="96.129" height="23.152"/> <path style="fill:#eb9844AF9985;" d="M167.152,257.324l-29.468,4.914c0,0-6.548,11.462,3.508,15.437 c15.063,5.953,28.765-0.703,28.765-0.703L167.152,257.324z"/> <ellipse style="fill:#eb9844CCB196;" cx="236.603" cy="39.819" rx="16.839" ry="17.542"/> <path style="fill:#eb9844CA28F;" d="M236.554,31.397c-37.983,0-32.123,47.01-32.123,47.01h62.294 C266.725,78.408,274.537,31.397,236.554,31.397z"/> <path style="fill:#eb9844CCB196;" d="M236.618,33.503c-43.151,0-32.127,47.01-32.127,47.01h62.182 C266.673,80.513,279.769,33.503,236.618,33.503z"/> <g> <path style="fill:#eb9844C6AC95;" d="M211.578,80.865c0,0-11.679-7.371-10.056,1.402c1.627,8.769,1.627,12.632,1.627,14.734 c0,2.105-0.976,9.121,2.592,9.472c3.568,0.355,6.492-4.207,6.492-4.207L211.578,80.865z"/> <path style="fill:#eb9844C6AC95;" d="M260.084,80.865l-0.647,21.398c0,0,2.921,4.562,6.484,4.207c3.571-0.348,2.599-7.367,2.599-9.472 c0-2.105,0-5.965,1.623-14.734C271.766,73.494,260.084,80.865,260.084,80.865z"/> </g> <path style="fill:#eb9844755548;" d="M50.682,355.559v27.564c43.368,55.103,110.605,90.531,186.163,90.531 c75.562,0,142.807-35.432,186.175-90.535v-27.561L50.682,355.559L50.682,355.559z"/> <path style="fill:#eb9844AD9569;" d="M424.386,355.218l-2.356-9.353c-0.153-0.625-0.718-1.062-1.365-1.062h-0.744l-2.019-11.929 c-0.12-0.673-0.703-1.171-1.387-1.171h-0.875l-1.432-8.65c-0.12-0.677-0.703-1.174-1.387-1.174H60.888 c-0.696,0-1.275,0.497-1.387,1.174l-1.432,8.65h-0.879c-0.692,0-1.264,0.497-1.376,1.171l-2.027,11.929h-0.748 c-0.643,0-1.208,0.438-1.361,1.062l-2.352,9.353c-0.105,0.419-0.011,0.864,0.254,1.204c0.266,0.344,0.673,0.542,1.107,0.542h372.338 c0.434,0,0.841-0.198,1.107-0.542C424.393,356.082,424.49,355.633,424.386,355.218z"/> <path style="fill:#eb9844CA682;" d="M416.719,317.007c-0.123-0.183-0.348-0.299-0.565-0.299H57.552c-0.221,0-0.438,0.112-0.565,0.299 c-0.131,0.183-0.168,0.426-0.086,0.639l2.255,6.585c0.093,0.284,0.37,0.479,0.666,0.479h354.063c0.307,0,0.568-0.194,0.677-0.479 l2.259-6.585C416.888,317.434,416.85,317.191,416.719,317.007z"/> <rect x="50.682" y="355.559" style="fill:#eb9844705147;" width="372.349" height="16.839"/> <rect x="50.682" y="372.723" style="fill:#eb984463473E;" width="372.349" height="1.227"/> <g> <path style="fill:#eb9844CCB196;" d="M86.601,270.453c-11.634,0-21.069,8.597-21.069,20.927v4.959c0,12.322,9.431,22.314,21.069,22.314 h150.361v-41.607L86.601,270.453z"/> <path style="fill:#eb9844CCB196;" d="M387.394,270.453l-150.365,6.593v41.603h150.365c9.435,0.423,15.983-10.807,21.073-22.314v-4.959 C408.466,279.051,399.035,270.453,387.394,270.453z"/> </g> <g> <path style="fill:#eb9844AF9985;" d="M111.032,306.443c-3.044-3.74-13.691-11.226-14.035-17.894c-0.359-6.668,0.696-15.785,3.16-17.191 l-2.816-0.703c0,0-7.543,7.535-7.543,13.859c0,5.785,0.849,14.24,19.468,26.659C112.427,313.287,114.061,310.186,111.032,306.443z"/> <path style="fill:#eb9844AF9985;" d="M117.808,294.282c0,0-7.247-12.161-6.548-22.452l-3.979-0.467c0,0-3.04,18.477,10.063,26.663 C117.344,298.022,120.141,298.96,117.808,294.282z"/> <path style="fill:#eb9844AF9985;" d="M178.03,316.263c-15.437-12.629-15.082-42.796-15.082-42.796l-2.105,0.344 c-3.16,22.808,6.312,30.522,7.374,34.733c1.043,4.211-0.707,8.07-0.707,8.07L178.03,316.263z"/> <path style="fill:#eb9844AF9985;" d="M276.261,275.924c0,0-16.488,17.539-36.483,18.242c0,0-35.088,3.156-49.471-18.597l-4.562,1.058 c0,0,8.074,20.699,43.506,24.554c0,0,25.96,7.367,49.467-25.612L276.261,275.924z"/> <path style="fill:#eb9844AF9985;" d="M284.331,274.87c0,0-5.46,13.163-12.457,21.226c-13.859,15.961-55.955,14.207-55.955,14.207 c32.628,3.859,36.42,2.786,49.467-2.105c16.843-6.316,22.097-32.632,22.097-32.632L284.331,274.87z"/> <path style="fill:#eb9844AF9985;" d="M188.553,298.725c0,0-11.574-10.519-7.015-24.206l-5.262,0.352c0,0-1.043,18.597,12.629,28.065 C188.905,302.935,198.201,307.494,188.553,298.725z"/> <path style="fill:#eb9844AF9985;" d="M298.829,282.121c-4.91,10.056-20.583,36.251-20.583,36.251l4.218,0.467 c2.102-1.634,16.6-30.635,16.6-30.635C300.939,283.759,298.829,282.121,298.829,282.121z"/> <path style="fill:#eb9844AF9985;" d="M304.446,318.836l13.773-33.024c-4.33,9.42-19.15,33.024-19.15,33.024H304.446z M318.219,285.812 c0.408-0.883,0.755-1.687,0.957-2.289L318.219,285.812z"/> </g> <path style="fill:#eb9844CCB196;" d="M238.024,107.883l-21.749,1.399c0,0-4.214,7.718-16.14,11.226c0,0-14.726,5.613-25.257,8.422 c-10.519,2.805-19.648,4.91-25.96,16.836c-6.312,11.929-4.211,22.452-4.211,30.874c0,8.418-2.7,25.624-5.617,48.413 c-2.105,16.488-6.309,43.035-4.2,47.246c0,0,14.027-3.04,25.257-10.762c11.222-7.715,25.261-17.535,34.378-10.519h44.202 L238.024,107.883z"/> <g> <polygon style="fill:#eb9844AF9985;" points="176.044,234.875 175.577,149.74 174.171,140.855 172.417,163.659 173.236,234.875 189.608,247.975 "/> <path style="fill:#eb9844AF9985;" d="M169.257,194.529c0,0,1.051-55.779-2.105-48.764c0,0-2.801,57.537-0.348,65.959l6.664,13.328 l0.703-6.664C174.171,218.387,170.659,216.985,169.257,194.529z"/> <path style="fill:#eb9844AF9985;" d="M163.995,213.126l-2.449-23.152l-1.055-25.612c0,0,1.402-10.175,1.402-13.683s-2.449,0-2.449,0 l-0.703,52.276c0,0,1.754,12.277,4.211,17.89c2.449,5.617,10.291,14.035,10.291,14.035l0.236-4.559L163.995,213.126z"/> <path style="fill:#eb9844AF9985;" d="M158.027,222.95c-4.91-18.597-1.746-62.795-1.746-67.006c0-4.211-2.105-5.968-2.457-3.16 c-0.355,2.805-1.399,44.905-2.105,48.413c-0.699,3.511,2.453,19.999,3.156,22.456c0.703,2.453,1.051,5.609,3.508,5.262 C160.839,228.559,158.027,222.95,158.027,222.95z"/> <path style="fill:#eb9844AF9985;" d="M134.883,264.579l2.446,1.402c0,0,4.218-19.996,19.651-22.804l1.043-1.402 C158.027,241.775,136.981,244.235,134.883,264.579z"/> <path style="fill:#eb9844AF9985;" d="M165.398,245.166c-14.726,0.352-23.148,21.05-23.148,21.05l3.508,1.047 c7.015-18.242,21.398-21.749,21.398-21.749L165.398,245.166z"/> <path style="fill:#eb9844AF9985;" d="M212.056,170.326l-0.699,3.508c0,0,8.769-0.348,14.39-3.508l9.117-4.559 C234.868,165.768,222.931,171.725,212.056,170.326z"/> <path style="fill:#eb9844AF9985;" d="M212.408,200.146l0.703,2.105c3.859-7.012,22.452-9.824,22.452-9.824 C222.235,191.021,212.408,200.146,212.408,200.146z"/> <path style="fill:#eb9844AF9985;" d="M186.769,221.016c-1.832-7.18-3.138-14.491-4.069-21.858c-0.972-7.363-1.541-14.783-1.952-22.221 c-0.385-7.445-0.587-14.902-0.613-22.404c-1.129,7.423-1.541,14.943-1.574,22.456c-0.03,7.52,0.426,15.041,1.361,22.52 c0.987,7.472,2.438,14.906,4.746,22.112c2.289,7.18,5.389,14.21,9.854,20.265C191.062,235.23,188.635,228.189,186.769,221.016z"/> <path style="fill:#eb9844AF9985;" d="M194.447,221.932c-1.122-3.545-1.933-7.176-2.648-10.834c-1.376-7.318-2.281-14.734-2.969-22.179 c-0.722-7.442-1.178-14.913-1.619-22.396l-1.118-22.512c-0.793,7.502-1.058,15.037-1.062,22.572 c-0.007,7.535,0.333,15.074,1.01,22.598c0.733,7.513,1.784,15.026,3.62,22.393c0.912,3.68,2.038,7.318,3.489,10.834 c1.503,3.482,3.295,6.933,5.931,9.663C196.945,228.959,195.561,225.478,194.447,221.932z"/> <path style="fill:#eb9844AF9985;" d="M222.991,228.009c-2.307-0.632-4.667-1.357-6.727-2.352c-2.087-1.051-3.915-2.487-5.497-4.211 c-3.141-3.467-5.445-7.707-7.247-12.12c-1.825-4.42-3.231-9.042-4.375-13.728c-2.337-9.368-3.743-18.993-4.865-28.649 c-1.055-9.659-1.866-19.375-2.337-29.131c-0.613,9.757-0.539,19.562,0.165,29.337c0.684,9.768,1.986,19.532,4.315,29.12 c1.208,4.775,2.666,9.521,4.645,14.091c2.031,4.525,4.488,9.005,8.122,12.606c1.802,1.784,3.923,3.351,6.282,4.353 c2.401,0.972,4.779,1.541,7.202,2.031c4.858,0.875,9.753,1.324,14.64,1.316C232.478,230.036,227.654,229.322,222.991,228.009z"/> <path style="fill:#eb9844AF9985;" d="M204.622,190.43c-0.841-6.514-1.593-13.051-2.27-19.595l-2.049-19.651 c-0.692-6.555-1.395-13.115-2.274-19.681c-0.28,6.619-0.183,13.234,0.097,19.842c0.254,6.608,0.77,13.204,1.436,19.786 c0.74,6.574,1.612,13.148,2.902,19.655c1.309,6.481,2.842,13.025,5.624,19.064C206.413,203.448,205.527,196.941,204.622,190.43z"/> </g> <g> <path style="fill:#eb9844CCB196;" d="M284.634,247.975l-13.634,10.052c0,0,19.999,5.968,28.417,17.195c0,0,17.097-2.453,29.774-10.875 C329.187,264.343,305.284,244.935,284.634,247.975z"/> <path style="fill:#eb9844CCB196;" d="M335.148,225.051c-2.906-22.789-5.609-39.991-5.609-48.413c0-8.422,2.105-18.941-4.211-30.874 c-6.312-11.929-15.441-14.031-25.964-16.836c-10.519-2.808-25.257-8.422-25.257-8.422c-11.922-3.508-16.136-11.226-16.136-11.226 l-21.746-1.399l-0.707,143.128h44.205c9.121-7.015,23.159,2.805,34.378,10.519c11.226,7.722,22.449,0.703,22.449,0.703 C338.66,258.027,337.261,241.539,335.148,225.051z"/> </g> <g> <polygon style="fill:#eb9844AF9985;" points="300.063,140.855 298.665,149.74 298.197,234.875 284.634,247.975 301.002,234.875 301.825,163.659 "/> <path style="fill:#eb9844AF9985;" d="M307.079,145.765c-3.152-7.015-2.102,48.764-2.102,48.764c-1.402,22.456-4.91,23.855-4.91,23.855 l0.703,6.664l6.668-13.328C309.887,203.302,307.079,145.765,307.079,145.765z"/> <path style="fill:#eb9844AF9985;" d="M314.801,150.679c0,0-2.449-3.508-2.449,0s1.399,13.683,1.399,13.683l-1.047,25.609l-2.464,23.152 l-9.469,17.191l0.236,4.559c0,0,7.838-8.418,10.295-14.035c2.449-5.609,4.207-17.89,4.207-17.89L314.801,150.679z"/> <path style="fill:#eb9844AF9985;" d="M322.516,201.197c-0.696-3.508-1.746-45.604-2.102-48.413c-0.344-2.808-2.457-1.051-2.457,3.16 c0,4.207,3.16,48.409-1.754,67.006c0,0-2.812,5.609-0.352,5.965c2.457,0.348,2.805-2.805,3.508-5.262 C320.074,221.196,323.223,204.708,322.516,201.197z"/> <path style="fill:#eb9844AF9985;" d="M313.395,239.437l1.058,1.399c15.437,2.808,19.651,22.808,19.651,22.808l2.446-1.402 C334.449,241.891,313.395,239.437,313.395,239.437z"/> <path style="fill:#eb9844AF9985;" d="M306.032,243.293l-1.75,0.352c0,0,14.379,3.508,21.394,21.749l3.511-1.055 C329.187,264.343,320.769,243.648,306.032,243.293z"/> <path style="fill:#eb9844AF9985;" d="M264.982,121.207l-1.402,10.878l-3.156,72.967c-1.402,11.933-23.155,10.175-23.155,10.175 s-22.052,1.758-23.455-10.175l-3.16-72.967l-1.395-10.878c0,0,0.46,74.844,2.337,86.07c0,0-0.28,10.759,25.672,10.759 c25.96,0,25.381-10.759,25.381-10.759C264.515,196.051,264.982,121.207,264.982,121.207z"/> <path style="fill:#eb9844AF9985;" d="M262.182,170.326c-10.878,1.402-22.808-4.559-22.808-4.559l9.121,4.559 c5.609,3.156,14.386,3.508,14.386,3.508L262.182,170.326z"/> <path style="fill:#eb9844AF9985;" d="M238.675,192.424c0,0,18.593,2.808,22.452,9.824l0.703-2.105 C261.83,200.146,252.01,191.021,238.675,192.424z"/> <path style="fill:#eb9844AF9985;" d="M294.114,154.538c-0.041,7.502-0.236,14.958-0.613,22.404c-0.415,7.438-0.987,14.857-1.96,22.221 c-0.927,7.363-2.244,14.678-4.069,21.858c-1.866,7.173-4.289,14.214-7.745,20.874c4.458-6.058,7.558-13.085,9.85-20.265 c2.304-7.202,3.766-14.64,4.749-22.112c0.935-7.479,1.395-15.003,1.354-22.52C295.647,169.477,295.232,161.961,294.114,154.538z"/> <path style="fill:#eb9844AF9985;" d="M288.142,144.011l-1.118,22.512c-0.434,7.483-0.897,14.955-1.615,22.396 c-0.681,7.442-1.597,14.861-2.965,22.179c-0.714,3.657-1.522,7.292-2.655,10.834c-1.103,3.545-2.487,7.027-4.63,10.138 c2.64-2.73,4.431-6.182,5.927-9.663c1.462-3.515,2.58-7.158,3.496-10.834c1.84-7.367,2.883-14.88,3.616-22.393 c0.681-7.524,1.021-15.063,1.013-22.598C289.207,159.048,288.938,151.513,288.142,144.011z"/> <path style="fill:#eb9844AF9985;" d="M239.452,253.551c22.905,0.236,28.982-13.792,28.982-13.792 C260.256,248.876,239.452,253.551,239.452,253.551z"/> <path style="fill:#eb9844AF9985;" d="M282.297,137.815c-0.475,9.757-1.283,19.472-2.345,29.131c-1.111,9.656-2.528,19.277-4.865,28.649 c-1.144,4.682-2.539,9.308-4.375,13.728c-1.799,4.416-4.095,8.653-7.247,12.12c-1.586,1.724-3.403,3.164-5.49,4.211 c-2.061,0.995-4.42,1.72-6.731,2.352c-4.66,1.313-9.487,2.027-14.33,2.655c4.888,0.007,9.783-0.441,14.64-1.316 c2.423-0.49,4.802-1.058,7.21-2.031c2.356-0.998,4.476-2.569,6.275-4.353c3.639-3.601,6.095-8.081,8.122-12.606 c1.978-4.57,3.437-9.312,4.648-14.091c2.333-9.588,3.627-19.352,4.312-29.12C282.828,157.376,282.903,147.571,282.297,137.815z"/> <path style="fill:#eb9844AF9985;" d="M276.212,131.502c-0.875,6.563-1.589,13.122-2.27,19.681l-2.061,19.651 c-0.669,6.544-1.429,13.081-2.262,19.595c-0.901,6.511-1.791,13.017-3.463,19.42c2.779-6.036,4.308-12.58,5.621-19.064 c1.298-6.507,2.169-13.081,2.898-19.655c0.669-6.582,1.178-13.178,1.443-19.786C276.392,144.736,276.497,138.117,276.212,131.502z"/> <polygon style="fill:#eb9844AF9985;" points="236.767,141.21 235.563,165.416 238.798,165.416 "/> </g> <path style="fill:#eb9844C6AC95;" d="M246.924,55.723h-22.49c-9.932,0-17.987,7.539-17.987,16.843l1.866,27.362 c0,9.297,15.437,18.002,27.83,18.002c12.4,0,26.895-8.706,26.895-18.002l1.877-27.362C264.923,63.259,256.868,55.723,246.924,55.723 z"/> <path style="fill:#eb9844CA28F;" d="M235.915,45.664c-16.136,0-29.464,8.709-29.464,18.006c0,0-0.004,15.908,3.624,27.362 c3.627,11.458,13.919,14.031,26.087,14.031c12.18,0,21.974-2.337,25.141-14.031c3.152-11.69,3.624-27.362,3.624-27.362 C264.923,54.373,252.055,45.664,235.915,45.664z"/> <path style="fill:#eb9844CCB196;" d="M264.923,66.482c0-9.3-12.864-18.01-29.008-18.01c-16.136,0-29.464,8.709-29.464,18.01 c0,0-1.41,10.991,2.393,22.449c3.799,11.466,15.149,16.94,27.318,16.94c12.18,0,23.054-5.243,26.371-16.94 C265.839,77.237,264.923,66.482,264.923,66.482z"/> <g> <path style="fill:#eb9844CA28F;" d="M209.259,73.961c5.146-9.82,21.981-3.74,21.981-3.74l0.464-6.548 C207.857,61.8,209.259,73.961,209.259,73.961z"/> <path style="fill:#eb9844CA28F;" d="M219.079,72.795c-3.16,1.402-7.023,1.402-7.023,1.402c15.089,8.422,17.195,0,17.195,0 C225.395,71.041,219.079,72.795,219.079,72.795z"/> </g> <path style="fill:#eb9844AD9586;" d="M222.116,74.904l-10.056-0.703c15.089,8.422,17.195,0,17.195,0L222.116,74.904z"/> <g> <path style="fill:#eb9844CA28F;" d="M231.764,81.392l0.703-8.653l-2.333,8.885c0,0-4.214,3.743,3.037,4.207 C233.166,85.834,228.495,84.9,231.764,81.392z"/> <path style="fill:#eb9844CA28F;" d="M239.639,63.674l0.471,6.548c0,0,16.839-6.081,21.981,3.74 C262.092,73.961,263.498,61.8,239.639,63.674z"/> <path style="fill:#eb9844CA28F;" d="M252.272,72.795c0,0-6.312-1.754-10.175,1.402c0,0,2.105,8.422,17.195,0 C259.291,74.201,255.435,74.201,252.272,72.795z"/> <path style="fill:#eb9844CA28F;" d="M241.221,81.624l-2.341-8.885l0.703,8.653c3.272,3.508-1.402,4.443-1.402,4.443 C245.432,85.367,241.221,81.624,241.221,81.624z"/> <path style="fill:#eb9844CA28F;" d="M226.27,94.548c0,0,2.274-2.838,3.803-4.005c1.518-1.17,4.443-1.638,4.443-1.638 C226.566,89.14,226.27,94.548,226.27,94.548z"/> <path style="fill:#eb9844CA28F;" d="M228.899,95.483c7.801,5.202,13.451-0.236,13.451-0.236 C236.528,97.177,228.899,95.483,228.899,95.483z"/> <path style="fill:#eb9844CA28F;" d="M238.723,89.05c0,0,1.84,0.703,2.663,2.685c0,0-3.276,0.026-5.557,0.026 c-2.277,0-5.501,1.114-5.501,1.114s4.102-0.438,5.587-0.438c1.488,0,8.594,1.754,8.594,1.754S244.572,89.282,238.723,89.05z"/> </g> <path style="fill:#eb9844AD9586;" d="M249.123,74.904l-7.124-0.703c0,0,2.105,8.422,17.187,0L249.123,74.904z"/> <path style="fill:#eb9844AF9985;" d="M261.875,255.925l-21.54,0.565c-0.912-1.93-5.127-2.674-5.127-2.674 c-9.816-3.508-45.6-3.74-45.6-3.74c-9.121-4.211-30.635,14.966-35.548,17.774c-4.91,2.805,12.629,8.418,16.839,9.824 c4.203,1.402,26.424,2.105,33.439,2.105c5.004,0,39.18-6.922,50.166-13.683C259.07,263.292,263.984,259.433,261.875,255.925z"/> <path style="fill:#eb9844CCB196;" d="M261.875,253.82l-21.54,0.565c-0.912-1.926-5.127-2.67-5.127-2.67c-9.816-3.508-45.6-3.74-45.6-3.74 c-9.121-4.214-30.635,14.966-35.548,17.774c-4.91,2.805,12.629,8.418,16.839,9.816c4.203,1.406,26.424,2.109,33.439,2.109 c5.004,0,39.18-6.922,50.166-13.683C259.07,261.191,263.984,257.324,261.875,253.82z"/> <g> <path style="fill:#eb9844AF9985;" d="M225.04,261.89c0,0-7.715,1.754-17.191,2.453c0,0,17.071,4.91,32.041-7.247 C239.894,257.096,236.266,257.679,225.04,261.89z"/> <path style="fill:#eb9844AF9985;" d="M151.251,268.086l5.617,2.808c2.337-8.418,33.2-21.046,33.2-21.046 C174.634,250.78,151.251,268.086,151.251,268.086z"/> <path style="fill:#eb9844AF9985;" d="M200.131,252.066l-7.128-0.819c1.432-0.12,5.146,4.102,6.436,3.627 c17.886-6.664,35.773-3.156,35.773-3.156C224.909,243.641,206.125,249.766,200.131,252.066z"/> <path style="fill:#eb9844AF9985;" d="M278.714,252.885l-34.378,15.77c0,0-11.978-8.096-18.294-1.455l-17.539,2.487 c0,0-7.666,6.436-2.76,8.926c4.91,2.491,27.359,4.147,27.359,4.147s21.753,0.83,30.881,0c9.117-0.826,31.925-3.811,38.241-12.105 L278.714,252.885z"/> </g> <path style="fill:#eb9844CCB196;" d="M283.157,252.649l-38.82,17.307c0,0-10.523-7.015-16.839-1.402l-16.843,3.743 c0,0-9.816,2.573-4.91,4.674c4.91,2.105,27.359,3.508,27.359,3.508s21.753,0.703,30.881,0c9.117-0.703,31.573-3.859,37.882-10.878 L283.157,252.649z"/> <g> <path style="fill:#eb9844AF9985;" d="M224.689,269.956c2.098,7.015,15.433,9.824,15.433,9.824 C235.915,276.272,224.689,269.956,224.689,269.956z"/> <path style="fill:#eb9844AF9985;" d="M276.145,252.182c0,0,17.307,6.196,26.772,23.036C302.917,275.221,295.793,250.308,276.145,252.182z "/> <path style="fill:#eb9844AF9985;" d="M346.778,272.417c-2.808,9.353-15.433,25.141-15.433,25.141c8.418-3.74,19.999-25.141,19.999-25.141 H346.778z"/> <path style="fill:#eb9844AF9985;" d="M367.129,272.061c-4.211,18.242-16.847,35.081-16.847,35.081 c9.117-7.015,21.054-36.487,21.054-36.487L367.129,272.061z"/> <path style="fill:#eb9844AF9985;" d="M382.562,270.659h-4.218c2.816,14.734-5.606,42.1-5.606,42.1 C381.16,303.635,382.562,270.659,382.562,270.659z"/> </g> </g>
</svg>